<mxfile host="65bd71144e">
    <diagram id="-Ktqi7kYHzm94LCwI6O1" name="Page-1">
        <mxGraphModel dx="808" dy="568" grid="1" gridSize="10" guides="1" tooltips="1" connect="1" arrows="1" fold="1" page="1" pageScale="1" pageWidth="850" pageHeight="1100" math="0" shadow="0">
            <root>
                <mxCell id="0"/>
                <mxCell id="1" parent="0"/>
                <mxCell id="2" value="Book" style="ellipse;shape=cloud;whiteSpace=wrap;html=1;" vertex="1" parent="1">
                    <mxGeometry x="400" y="240" width="120" height="80" as="geometry"/>
                </mxCell>
                <mxCell id="3" value="Author" style="ellipse;shape=cloud;whiteSpace=wrap;html=1;" vertex="1" parent="1">
                    <mxGeometry x="305" y="170" width="120" height="80" as="geometry"/>
                </mxCell>
                <mxCell id="4" value="Title" style="ellipse;shape=cloud;whiteSpace=wrap;html=1;" vertex="1" parent="1">
                    <mxGeometry x="460" y="170" width="120" height="80" as="geometry"/>
                </mxCell>
                <mxCell id="5" value="Genre" style="ellipse;shape=cloud;whiteSpace=wrap;html=1;" vertex="1" parent="1">
                    <mxGeometry x="590" y="210" width="120" height="80" as="geometry"/>
                </mxCell>
                <mxCell id="6" value="Read" style="ellipse;shape=cloud;whiteSpace=wrap;html=1;" vertex="1" parent="1">
                    <mxGeometry x="320" y="330" width="120" height="80" as="geometry"/>
                </mxCell>
                <mxCell id="7" value="Price" style="ellipse;shape=cloud;whiteSpace=wrap;html=1;" vertex="1" parent="1">
                    <mxGeometry x="440" y="340" width="120" height="80" as="geometry"/>
                </mxCell>
                <mxCell id="8" value="Pages" style="ellipse;shape=cloud;whiteSpace=wrap;html=1;" vertex="1" parent="1">
                    <mxGeometry x="220" y="240" width="120" height="80" as="geometry"/>
                </mxCell>
                <mxCell id="9" value="Publishing Date" style="ellipse;shape=cloud;whiteSpace=wrap;html=1;" vertex="1" parent="1">
                    <mxGeometry x="570" y="300" width="120" height="80" as="geometry"/>
                </mxCell>
            </root>
        </mxGraphModel>
    </diagram>
</mxfile>